<?xml version="1.0" encoding="UTF-8" standalone="no"?>
<svg width="18px" height="16px" viewBox="0 0 18 16" version="1.1" xmlns="http://www.w3.org/2000/svg" xmlns:xlink="http://www.w3.org/1999/xlink">
    <!-- Generator: Sketch 3.7.1 (28215) - http://www.bohemiancoding.com/sketch -->
    <title>ICON-CALENDAR</title>
    <desc>Created with Sketch.</desc>
    <defs></defs>
    <g id="NOTICIAS" stroke="none" stroke-width="1" fill="none" fill-rule="evenodd">
        <g id="FICHA-DE-NOTICIAS" transform="translate(-135.000000, -1322.000000)" fill="#905353">
            <g id="Group-12" transform="translate(135.000000, 1321.000000)">
                <g id="Group-13">
                    <path d="M12.5811966,4 L13.6752137,4 C13.9775726,4 14.2222222,3.776375 14.2222222,3.5 L14.2222222,1.5 C14.2222222,1.223625 13.9775726,1 13.6752137,1 L12.5811966,1 C12.2788376,1 12.034188,1.223625 12.034188,1.5 L12.034188,3.5 C12.034188,3.776375 12.2788376,4 12.5811966,4 L12.5811966,4 Z M16.4102564,7 C16.4102564,6.44921875 15.9198632,6 15.3162393,6 L2.18803419,6 C1.58492308,6 1.09401709,6.44921875 1.09401709,7 L1.09401709,15 C1.09401709,15.55175 1.58492308,16 2.18803419,16 L15.3162393,16 C15.9198632,16 16.4102564,15.55175 16.4102564,15 L16.4102564,7 Z M17.5042735,5 L17.5042735,15 C17.5042735,16.1045 16.5245812,17 15.3162393,17 L2.18803419,17 C0.979692308,17 0,16.1045 0,15 L0,5 C0,3.8955 0.979692308,3 2.18803419,3 L2.73504274,3 L2.73504274,3.5 C2.73504274,4.05078125 3.22594872,4.5 3.82905983,4.5 L4.92307692,4.5 C5.52618803,4.5 6.01709402,4.05078125 6.01709402,3.5 L6.01709402,3 L11.4871795,3 L11.4871795,3.5 C11.4871795,4.05078125 11.9786325,4.5 12.5811966,4.5 L13.6752137,4.5 C14.2777778,4.5 14.7692308,4.05078125 14.7692308,3.5 L14.7692308,3 L15.3162393,3 C16.5245812,3 17.5042735,3.8955 17.5042735,5 L17.5042735,5 Z M3.82905983,4 L4.92307692,4 C5.2254359,4 5.47008547,3.776375 5.47008547,3.5 L5.47008547,1.5 C5.47008547,1.223625 5.2254359,1 4.92307692,1 L3.82905983,1 C3.52670085,1 3.28205128,1.223625 3.28205128,1.5 L3.28205128,3.5 C3.28205128,3.776375 3.52670085,4 3.82905983,4 L3.82905983,4 Z M13.6752137,12 L12.5811966,12 C12.2788376,12 12.034188,12.223625 12.034188,12.5 L12.034188,13.5 C12.034188,13.776375 12.2788376,14 12.5811966,14 L13.6752137,14 C13.9775726,14 14.2222222,13.776375 14.2222222,13.5 L14.2222222,12.5 C14.2222222,12.223625 13.9775726,12 13.6752137,12 L13.6752137,12 Z M13.6752137,8 L12.5811966,8 C12.2788376,8 12.034188,8.223625 12.034188,8.5 L12.034188,9.5 C12.034188,9.776375 12.2788376,10 12.5811966,10 L13.6752137,10 C13.9775726,10 14.2222222,9.776375 14.2222222,9.5 L14.2222222,8.5 C14.2222222,8.223625 13.9775726,8 13.6752137,8 L13.6752137,8 Z M9.2991453,12 L8.20512821,12 C7.90276923,12 7.65811966,12.223625 7.65811966,12.5 L7.65811966,13.5 C7.65811966,13.776375 7.90276923,14 8.20512821,14 L9.2991453,14 C9.60150427,14 9.84615385,13.776375 9.84615385,13.5 L9.84615385,12.5 C9.84615385,12.223625 9.60150427,12 9.2991453,12 L9.2991453,12 Z M9.2991453,8 L8.20512821,8 C7.90276923,8 7.65811966,8.223625 7.65811966,8.5 L7.65811966,9.5 C7.65811966,9.776375 7.90276923,10 8.20512821,10 L9.2991453,10 C9.60150427,10 9.84615385,9.776375 9.84615385,9.5 L9.84615385,8.5 C9.84615385,8.223625 9.60150427,8 9.2991453,8 L9.2991453,8 Z M4.92307692,12 L3.82905983,12 C3.52670085,12 3.28205128,12.223625 3.28205128,12.5 L3.28205128,13.5 C3.28205128,13.776375 3.52670085,14 3.82905983,14 L4.92307692,14 C5.2254359,14 5.47008547,13.776375 5.47008547,13.5 L5.47008547,12.5 C5.47008547,12.223625 5.2254359,12 4.92307692,12 L4.92307692,12 Z M5.47008547,8.5 L5.47008547,9.5 C5.47008547,9.776375 5.2254359,10 4.92307692,10 L3.82905983,10 C3.52670085,10 3.28205128,9.776375 3.28205128,9.5 L3.28205128,8.5 C3.28205128,8.223625 3.52670085,8 3.82905983,8 L4.92307692,8 C5.2254359,8 5.47008547,8.223625 5.47008547,8.5 L5.47008547,8.5 Z" id="ICON-CALENDAR"></path>
                </g>
            </g>
        </g>
    </g>
</svg>