<?xml version="1.0" encoding="UTF-8" standalone="no"?>
<svg width="64px" height="50px" viewBox="0 0 64 50" version="1.1" xmlns="http://www.w3.org/2000/svg" xmlns:xlink="http://www.w3.org/1999/xlink">
    <!-- Generator: Sketch 3.7.1 (28215) - http://www.bohemiancoding.com/sketch -->
    <title>fotos</title>
    <desc>Created with Sketch.</desc>
    <defs></defs>
    <g id="GALERÃA-MULTIMEDIA" stroke="none" stroke-width="1" fill="none" fill-rule="evenodd" fill-opacity="0.6">
        <g transform="translate(-508.000000, -1038.000000)" id="Group-5" fill="#FFFFFF">
            <g transform="translate(360.000000, 883.000000)">
                <path d="M179.930808,173.389969 C185.435732,173.389969 189.89888,177.853117 189.89888,183.358041 C189.89888,188.862965 185.435732,193.326113 179.930808,193.326113 C174.425884,193.326113 169.962736,188.862965 169.962736,183.358041 C169.962736,177.853117 174.425884,173.389969 179.930808,173.389969 M208.113471,161.716082 L192.515312,161.716082 C192.516811,161.674861 192.524306,161.635139 192.524306,161.593917 L192.524306,158.747396 C192.524306,156.677334 189.972329,155 186.829763,155 L173.030354,155 C169.886289,155 167.337311,156.677334 167.337311,158.747396 L167.337311,161.593917 C167.337311,161.635139 167.344805,161.674861 167.347054,161.716082 L151.747396,161.716082 C149.678084,161.716082 148,163.394166 148,165.463478 L148,201.252604 C148,203.322666 149.678084,205 151.747396,205 L208.112722,205 C210.182783,205 211.860117,203.322666 211.860117,201.252604 L211.860117,165.463478 C211.860867,163.394166 210.182783,161.716082 208.113471,161.716082" id="fotos"></path>
            </g>
        </g>
    </g>
</svg>