<?xml version="1.0" encoding="UTF-8" standalone="no"?>
<svg width="127px" height="100px" viewBox="0 0 127 100" version="1.1" xmlns="http://www.w3.org/2000/svg" xmlns:xlink="http://www.w3.org/1999/xlink">
    <!-- Generator: Sketch 3.7.1 (28215) - http://www.bohemiancoding.com/sketch -->
    <title>GALERIA</title>
    <desc>Created with Sketch.</desc>
    <defs></defs>
    <g id="GALERÃA-MULTIMEDIA" stroke="none" stroke-width="1" fill="none" fill-rule="evenodd">
        <g id="FICHA-GALERIA" transform="translate(-657.000000, -350.000000)" fill="#FFFFFF">
            <g id="ICONO" transform="translate(595.000000, 275.000000)">
                <path d="M65.9473684,159.605263 L65.9473684,78.9473684 L173.447368,78.9473684 C174.5,78.9473684 175.421053,78.0263158 175.421053,76.9736842 C175.421053,75.9210526 174.5,75 173.447368,75 L63.9736842,75 C62.9210526,75 62,75.9210526 62,76.9736842 L62,159.605263 C62,160.657895 62.9210526,161.578947 63.9736842,161.578947 C65.0263158,161.578947 65.9473684,160.657895 65.9473684,159.605263 L65.9473684,159.605263 Z M77.3947368,171.184211 L184.894737,171.184211 L184.894737,90.5263158 L77.3947368,90.5263158 L77.3947368,171.184211 Z M186.868421,175 L75.4210526,175 C74.3684211,175 73.4473684,174.078947 73.4473684,173.026316 L73.4473684,88.5526316 C73.4473684,87.5 74.3684211,86.5789474 75.4210526,86.5789474 L186.868421,86.5789474 C187.921053,86.5789474 188.842105,87.5 188.842105,88.5526316 L188.842105,173.026316 C188.842105,174.210526 187.921053,175 186.868421,175 L186.868421,175 Z M98.3157895,107.5 C94.5,107.5 91.4736842,110.526316 91.4736842,114.342105 C91.4736842,118.157895 94.5,121.184211 98.3157895,121.184211 C102.131579,121.184211 105.157895,118.157895 105.157895,114.342105 C105.157895,110.526316 102,107.5 98.3157895,107.5 L98.3157895,107.5 Z M98.3157895,125.131579 C92.3947368,125.131579 87.6578947,120.394737 87.6578947,114.473684 C87.6578947,108.552632 92.3947368,103.815789 98.3157895,103.815789 C104.236842,103.815789 108.973684,108.421053 108.973684,114.342105 C108.973684,120.263158 104.105263,125.131579 98.3157895,125.131579 L98.3157895,125.131579 Z M93.3157895,155.789474 L174.631579,155.789474 L159.105263,109.342105 L134.894737,141.710526 C134.5,142.105263 134.105263,142.5 133.447368,142.5 C132.921053,142.5 132.394737,142.368421 132,141.973684 L115.947368,125.789474 L93.3157895,155.789474 Z M177.263158,159.605263 L89.5,159.605263 C88.7105263,159.605263 88.0526316,159.210526 87.7894737,158.552632 C87.5263158,157.894737 87.5263158,157.105263 87.9210526,156.578947 L114.236842,121.710526 C114.631579,121.315789 115.026316,121.052632 115.684211,120.921053 C116.210526,120.921053 116.736842,121.052632 117.131579,121.447368 L133.184211,137.631579 L158.184211,104.210526 C158.578947,103.684211 159.368421,103.289474 160.026316,103.421053 C160.684211,103.552632 161.342105,104.078947 161.605263,104.736842 L179.105263,157.105263 C179.236842,157.631579 179.236842,158.289474 178.842105,158.815789 C178.447368,159.342105 177.921053,159.605263 177.263158,159.605263 L177.263158,159.605263 Z" id="GALERIA"></path>
            </g>
        </g>
    </g>
</svg>