<?xml version="1.0" encoding="iso-8859-1"?>
<!-- Generator: Adobe Illustrator 18.1.1, SVG Export Plug-In . SVG Version: 6.00 Build 0)  -->
<svg xmlns="http://www.w3.org/2000/svg" xmlns:xlink="http://www.w3.org/1999/xlink" version="1.1" id="Capa_1" x="0px" y="0px" viewBox="0 0 33.995 33.995" style="enable-background:new 0 0 33.995 33.995;" xml:space="preserve" width="512px" height="512px">
<g id="calendar">
	<path d="M27.553,33.995H6.442c-3.003,0-5.445-2.442-5.445-5.444V7.441c0-3.003,2.442-5.445,5.445-5.445c0.553,0,1,0.447,1,1   s-0.447,1-1,1c-1.899,0-3.445,1.546-3.445,3.445v21.109c0,1.899,1.546,3.444,3.445,3.444h21.11c1.899,0,3.445-1.545,3.445-3.444   V7.441c0-1.899-1.546-3.445-3.445-3.445c-0.553,0-1-0.447-1-1s0.447-1,1-1c3.003,0,5.445,2.442,5.445,5.445v21.109   C32.998,31.553,30.556,33.995,27.553,33.995z" fill="#666666"/>
	<path d="M31.998,11.498H1.997c-0.553,0-1-0.447-1-1s0.447-1,1-1h30.001c0.553,0,1,0.447,1,1S32.551,11.498,31.998,11.498z" fill="#666666"/>
	<path d="M10.005,5.498c-0.553,0-1-0.447-1-1V1c0-0.553,0.447-1,1-1s1,0.447,1,1v3.498C11.005,5.051,10.558,5.498,10.005,5.498z" fill="#666666"/>
	<path d="M16.506,5.498c-0.553,0-1-0.447-1-1V1c0-0.553,0.447-1,1-1s1,0.447,1,1v3.498C17.506,5.051,17.059,5.498,16.506,5.498z" fill="#666666"/>
	<path d="M23.004,5.498c-0.553,0-1-0.447-1-1V1c0-0.553,0.447-1,1-1s1,0.447,1,1v3.498C24.004,5.051,23.557,5.498,23.004,5.498z" fill="#666666"/>
	<g>
		<path d="M10.086,25.386h4.686c0.467,0,0.823,0.096,1.068,0.287c0.245,0.192,0.368,0.452,0.368,0.781    c0,0.294-0.097,0.542-0.291,0.745c-0.195,0.204-0.489,0.305-0.884,0.305H8.425c-0.449,0-0.799-0.124-1.05-0.373    c-0.251-0.248-0.377-0.54-0.377-0.875c0-0.216,0.081-0.501,0.242-0.857c0.162-0.356,0.338-0.636,0.53-0.839    c0.796-0.826,1.514-1.533,2.154-2.123c0.64-0.589,1.098-0.977,1.373-1.162c0.491-0.347,0.899-0.696,1.225-1.046    c0.326-0.35,0.574-0.709,0.745-1.077c0.17-0.368,0.256-0.728,0.256-1.081c0-0.383-0.091-0.726-0.274-1.028    s-0.431-0.537-0.745-0.705c-0.314-0.167-0.657-0.251-1.028-0.251c-0.784,0-1.4,0.344-1.849,1.032    c-0.06,0.09-0.16,0.335-0.301,0.736c-0.141,0.401-0.299,0.709-0.476,0.924c-0.177,0.216-0.435,0.323-0.776,0.323    c-0.299,0-0.548-0.099-0.745-0.296c-0.198-0.197-0.296-0.466-0.296-0.808c0-0.413,0.093-0.844,0.278-1.292    c0.185-0.449,0.462-0.856,0.83-1.221c0.368-0.365,0.835-0.66,1.4-0.884c0.566-0.224,1.228-0.337,1.988-0.337    c0.916,0,1.697,0.144,2.343,0.431c0.419,0.192,0.787,0.455,1.104,0.79c0.317,0.335,0.564,0.723,0.74,1.162    c0.177,0.44,0.265,0.896,0.265,1.369c0,0.742-0.184,1.417-0.552,2.024c-0.368,0.607-0.744,1.083-1.127,1.427    c-0.383,0.344-1.025,0.884-1.925,1.62c-0.901,0.736-1.519,1.308-1.854,1.715C10.382,24.964,10.235,25.159,10.086,25.386z" fill="#666666"/>
		<path d="M21.944,19.56c0.551,0,1.025-0.161,1.423-0.485c0.398-0.323,0.597-0.787,0.597-1.391c0-0.461-0.159-0.857-0.476-1.19    c-0.317-0.332-0.745-0.498-1.284-0.498c-0.365,0-0.666,0.051-0.902,0.152c-0.236,0.102-0.423,0.237-0.561,0.404    c-0.138,0.167-0.268,0.383-0.391,0.646c-0.123,0.264-0.235,0.512-0.337,0.745c-0.06,0.126-0.168,0.225-0.323,0.296    c-0.156,0.072-0.335,0.108-0.539,0.108c-0.239,0-0.459-0.097-0.66-0.292c-0.2-0.194-0.301-0.453-0.301-0.776    c0-0.311,0.094-0.639,0.283-0.983c0.189-0.344,0.464-0.672,0.826-0.983c0.362-0.311,0.813-0.561,1.351-0.75    s1.14-0.283,1.804-0.283c0.58,0,1.11,0.079,1.589,0.238c0.479,0.159,0.895,0.387,1.248,0.687c0.353,0.299,0.619,0.646,0.799,1.041    c0.18,0.395,0.269,0.82,0.269,1.275c0,0.599-0.13,1.112-0.39,1.539c-0.26,0.428-0.633,0.846-1.118,1.252    c0.467,0.251,0.86,0.539,1.18,0.862c0.32,0.323,0.561,0.681,0.723,1.073c0.162,0.392,0.242,0.815,0.242,1.27    c0,0.544-0.109,1.071-0.328,1.58c-0.219,0.509-0.54,0.962-0.965,1.36c-0.425,0.398-0.929,0.709-1.513,0.933    c-0.583,0.225-1.228,0.337-1.934,0.337c-0.718,0-1.362-0.128-1.93-0.386c-0.569-0.257-1.037-0.579-1.405-0.965    c-0.368-0.386-0.646-0.785-0.835-1.198c-0.189-0.413-0.283-0.754-0.283-1.023c0-0.347,0.112-0.627,0.337-0.839    c0.225-0.212,0.504-0.319,0.84-0.319c0.167,0,0.329,0.049,0.484,0.148c0.156,0.099,0.257,0.217,0.305,0.354    c0.311,0.832,0.645,1.45,1.001,1.854c0.356,0.404,0.857,0.606,1.504,0.606c0.371,0,0.729-0.091,1.073-0.274    c0.344-0.182,0.628-0.453,0.853-0.812c0.225-0.359,0.337-0.775,0.337-1.248c0-0.7-0.191-1.249-0.574-1.647    c-0.383-0.398-0.916-0.597-1.598-0.597c-0.12,0-0.305,0.012-0.556,0.036c-0.251,0.024-0.413,0.036-0.485,0.036    c-0.329,0-0.583-0.082-0.763-0.247c-0.18-0.164-0.269-0.393-0.269-0.687c0-0.287,0.108-0.519,0.323-0.696s0.536-0.265,0.961-0.265    H21.944z" fill="#666666"/>
	</g>
</g>
<g>
</g>
<g>
</g>
<g>
</g>
<g>
</g>
<g>
</g>
<g>
</g>
<g>
</g>
<g>
</g>
<g>
</g>
<g>
</g>
<g>
</g>
<g>
</g>
<g>
</g>
<g>
</g>
<g>
</g>
</svg>
