<?xml version="1.0" encoding="iso-8859-1"?>
<!-- Generator: Adobe Illustrator 16.0.0, SVG Export Plug-In . SVG Version: 6.00 Build 0)  -->
<!DOCTYPE svg PUBLIC "-//W3C//DTD SVG 1.1//EN" "http://www.w3.org/Graphics/SVG/1.1/DTD/svg11.dtd">
<svg xmlns="http://www.w3.org/2000/svg" xmlns:xlink="http://www.w3.org/1999/xlink" version="1.1" id="Capa_1" x="0px" y="0px" width="512px" height="512px" viewBox="0 0 65.416 65.416" style="enable-background:new 0 0 65.416 65.416;" xml:space="preserve">
<g>
	<g>
		<path d="M40.992,47.942h7.832c0.275,0,0.5-0.227,0.5-0.5v-6.551c2.279-0.254,4.064-2.17,4.064-4.518    c0-2.519-2.049-4.563-4.564-4.563s-4.562,2.048-4.562,4.563c0,2.348,1.784,4.264,4.062,4.518v6.051h-6.832V30.941    c0-0.137-0.059-0.269-0.155-0.362l-6.5-6.167c-0.181-0.169-0.456-0.184-0.649-0.033l-3.211,2.487    c0.006-0.031,0.019-0.06,0.019-0.092V13.941c0-0.275-0.225-0.5-0.5-0.5H14.658c-0.276,0-0.5,0.225-0.5,0.5v10.333h-7    c-0.276,0-0.5,0.225-0.5,0.5v22.668c0,0.273,0.224,0.5,0.5,0.5h8.167c0.134,0,0.263-0.055,0.355-0.148    c0.095-0.096,0.146-0.225,0.145-0.356l-0.159-9.358c2.512-0.181,4.508-2.259,4.508-4.814c0-2.674-2.175-4.85-4.849-4.85    c-2.674,0-4.851,2.175-4.851,4.85c0,2.447,1.83,4.456,4.19,4.781l0.151,8.899H7.658v-21.67h16.5v22.168c0,0.274,0.224,0.5,0.5,0.5    h3c0.275,0,0.5-0.226,0.5-0.5V30.312l6.299-4.877l6.033,5.725v16.284C40.492,47.718,40.715,47.942,40.992,47.942z M45.26,36.376    c0-1.965,1.602-3.563,3.564-3.563s3.562,1.601,3.562,3.563s-1.602,3.566-3.562,3.566C46.857,39.942,45.26,38.343,45.26,36.376z     M11.475,33.259c0-2.123,1.728-3.849,3.851-3.849s3.849,1.727,3.849,3.849c0,2.123-1.727,3.851-3.849,3.851    S11.475,35.382,11.475,33.259z M27.352,29.669c-0.122,0.095-0.193,0.241-0.193,0.396v16.878h-2V24.774c0-0.275-0.225-0.5-0.5-0.5    h-9.5v-9.833h14.833v12.333c0,0.264,0.205,0.474,0.463,0.493L27.352,29.669z" fill="#FFFFFF"/>
		<path d="M51.459,17.607c0-3.657-2.979-6.634-6.635-6.634c-3.658,0-6.637,2.977-6.637,6.634c0,3.658,2.979,6.636,6.637,6.636    C48.48,24.245,51.459,21.267,51.459,17.607z M39.188,17.607c0-3.106,2.528-5.634,5.637-5.634c3.105,0,5.635,2.527,5.635,5.634    s-2.525,5.636-5.635,5.636C41.718,23.245,39.188,20.715,39.188,17.607z" fill="#FFFFFF"/>
		<path d="M64.916,49.442c-0.273,0-0.5,0.225-0.5,0.5c0,1.932-1.568,3.5-3.5,3.5s-3.5-1.568-3.5-3.5c0-0.275-0.225-0.5-0.5-0.5    c-0.273,0-0.5,0.225-0.5,0.5c0,1.932-1.568,3.5-3.5,3.5s-3.5-1.568-3.5-3.5c0-0.275-0.225-0.5-0.5-0.5    c-0.027,0-0.057,0.014-0.082,0.018c-0.027-0.004-0.057-0.018-0.084-0.018c-0.273,0-0.5,0.225-0.5,0.5c0,1.932-1.568,3.5-3.5,3.5    s-3.5-1.568-3.5-3.5c0-0.275-0.225-0.5-0.5-0.5c-0.273,0-0.5,0.225-0.5,0.5c0,1.932-1.568,3.5-3.5,3.5s-3.5-1.568-3.5-3.5    c0-0.275-0.225-0.5-0.5-0.5c-0.015,0-0.027,0.008-0.042,0.008c-0.014,0-0.027-0.008-0.042-0.008c-0.276,0-0.5,0.225-0.5,0.5    c0,1.932-1.57,3.5-3.5,3.5s-3.5-1.568-3.5-3.5c0-0.275-0.224-0.5-0.5-0.5s-0.5,0.225-0.5,0.5c0,1.932-1.57,3.5-3.5,3.5    s-3.5-1.568-3.5-3.5c0-0.275-0.224-0.5-0.5-0.5c-0.03,0-0.055,0.014-0.083,0.018c-0.028-0.004-0.054-0.018-0.083-0.018    c-0.276,0-0.5,0.225-0.5,0.5c0,1.932-1.57,3.5-3.5,3.5S9,51.874,9,49.942c0-0.275-0.224-0.5-0.5-0.5S8,49.667,8,49.942    c0,1.932-1.57,3.5-3.5,3.5S1,51.874,1,49.942c0-0.275-0.224-0.5-0.5-0.5S0,49.667,0,49.942c0,2.479,2.019,4.5,4.5,4.5    c1.752,0,3.257-1.018,4-2.48c0.743,1.465,2.248,2.48,4,2.48c1.814,0,3.372-1.084,4.083-2.635c0.711,1.551,2.269,2.635,4.083,2.635    c1.752,0,3.257-1.018,4-2.48c0.743,1.465,2.248,2.48,4,2.48c1.783,0,3.313-1.051,4.042-2.561c0.729,1.512,2.258,2.561,4.042,2.561    c1.753,0,3.258-1.018,4-2.48c0.744,1.465,2.248,2.48,4,2.48c1.814,0,3.373-1.084,4.084-2.635c0.711,1.551,2.27,2.635,4.082,2.635    c1.752,0,3.258-1.018,4-2.48c0.744,1.465,2.248,2.48,4,2.48c2.479,0,4.5-2.021,4.5-4.5C65.416,49.665,65.191,49.442,64.916,49.442    z" fill="#FFFFFF"/>
	</g>
</g>
<g>
</g>
<g>
</g>
<g>
</g>
<g>
</g>
<g>
</g>
<g>
</g>
<g>
</g>
<g>
</g>
<g>
</g>
<g>
</g>
<g>
</g>
<g>
</g>
<g>
</g>
<g>
</g>
<g>
</g>
</svg>
