<?xml version="1.0" encoding="UTF-8" standalone="no"?>
<svg width="93px" height="100px" viewBox="0 0 93 100" version="1.1" xmlns="http://www.w3.org/2000/svg" xmlns:xlink="http://www.w3.org/1999/xlink">
    <!-- Generator: Sketch 3.7.1 (28215) - http://www.bohemiancoding.com/sketch -->
    <title>noticias</title>
    <desc>Created with Sketch.</desc>
    <defs></defs>
    <g id="NOTICIAS" stroke="none" stroke-width="1" fill="none" fill-rule="evenodd">
        <g id="FICHA-DE-NOTICIAS" transform="translate(-674.000000, -350.000000)" fill="#FFFFFF">
            <g id="ICONO" transform="translate(595.000000, 275.000000)">
                <path d="M170.218523,87.4596762 L153.270904,87.4596762 L153.270904,82.9219024 C153.270904,82.07395 152.5813,81.3857569 151.73161,81.3857569 L143.602602,81.3857569 L143.602602,76.5361455 C143.602602,75.6881932 142.912999,75 142.063309,75 L80.5392933,75 C79.6896034,75 79,75.6881932 79,76.5361455 L79,161.878245 C79,162.131709 79.0769647,162.362131 79.1862545,162.572583 C80.2576027,169.59584 86.3316542,175 93.6633084,175 L154.97798,175 C155.025698,175 155.06572,174.976958 155.113438,174.972349 C155.139606,174.973886 155.161156,174.987711 155.187324,174.987711 C164.324569,174.987711 171.757817,167.568128 171.757817,158.449568 L171.757817,88.9958217 C171.757817,88.1478694 171.068213,87.4596762 170.218523,87.4596762 Z M168.680769,158.451104 C168.680769,165.68635 162.926891,171.591293 155.747627,171.887769 C155.573687,171.818643 155.385893,171.774094 155.187324,171.774094 C148.800796,171.774094 143.604142,166.588067 143.604142,160.2146 L143.604142,89.6717257 C143.604142,89.6686534 143.602602,89.6671173 143.602602,89.664045 L143.602602,84.4580479 L150.192317,84.4580479 L150.192317,158.890442 C150.192317,162.279179 152.953809,165.035024 156.34949,165.035024 C159.745172,165.035024 162.506664,162.279179 162.506664,158.891978 L162.506664,96.7472119 C162.506664,95.8992596 161.81706,95.2110664 160.967371,95.2110664 L153.270904,95.2110664 L153.270904,90.5319672 L168.680769,90.5319672 L168.680769,158.451104 Z M82.080126,160.368214 L82.080126,89.8253403 C82.080126,89.822268 82.0785867,89.8207318 82.0785867,89.8176595 L82.0785867,78.072291 L140.524016,78.072291 L140.524016,161.878245 C140.524016,162.151679 140.614834,162.395926 140.741056,162.617131 C141.373706,166.414483 143.470223,169.714123 146.437981,171.927709 L93.6633084,171.927709 C87.2767803,171.927709 82.080126,166.741682 82.080126,160.368214 Z M153.270904,98.2833574 L159.428077,98.2833574 L159.428077,158.891978 C159.428077,160.586347 158.047331,161.964269 156.34949,161.964269 C154.65165,161.964269 153.270904,160.586347 153.270904,158.891978 L153.270904,98.2833574 Z M134.7863,131.273618 L89.5049074,131.273618 C88.6552175,131.273618 87.9656141,130.585425 87.9656141,129.737473 C87.9656141,128.88952 88.6552175,128.201327 89.5049074,128.201327 L134.7863,128.201327 C135.63599,128.201327 136.325593,128.88952 136.325593,129.737473 C136.325593,130.585425 135.63599,131.273618 134.7863,131.273618 Z M134.7863,125 L89.5049074,125 C88.6552175,125 87.9656141,124.311807 87.9656141,123.463854 C87.9656141,122.615902 88.6552175,121.927709 89.5049074,121.927709 L134.7863,121.927709 C135.63599,121.927709 136.325593,122.615902 136.325593,123.463854 C136.325593,124.311807 135.63599,125 134.7863,125 Z M134.7863,119.111954 L89.5049074,119.111954 C88.6552175,119.111954 87.9656141,118.423761 87.9656141,117.575809 C87.9656141,116.727856 88.6552175,116.039663 89.5049074,116.039663 L134.7863,116.039663 C135.63599,116.039663 136.325593,116.727856 136.325593,117.575809 C136.325593,118.423761 135.63599,119.111954 134.7863,119.111954 Z M134.7863,113.223909 L89.5049074,113.223909 C88.6552175,113.223909 87.9656141,112.535715 87.9656141,111.687763 C87.9656141,110.839811 88.6552175,110.151618 89.5049074,110.151618 L134.7863,110.151618 C135.63599,110.151618 136.325593,110.839811 136.325593,111.687763 C136.325593,112.535715 135.63599,113.223909 134.7863,113.223909 Z M107.07902,155.987127 L89.5049074,155.987127 C88.7183285,155.987127 88.0810611,155.351163 88.0810611,154.566193 C88.0810611,153.781222 88.7183285,153.145258 89.5049074,153.145258 L107.07902,153.145258 C107.865598,153.145258 108.502866,153.781222 108.502866,154.566193 C108.502866,155.351163 107.865598,155.987127 107.07902,155.987127 Z M107.07902,149.970045 L89.5049074,149.970045 C88.7183285,149.970045 88.0810611,149.334081 88.0810611,148.549111 C88.0810611,147.76414 88.7183285,147.128176 89.5049074,147.128176 L107.07902,147.128176 C107.865598,147.128176 108.502866,147.76414 108.502866,148.549111 C108.502866,149.334081 107.865598,149.970045 107.07902,149.970045 Z M107.07902,143.441427 L89.5049074,143.441427 C88.7183285,143.441427 88.0810611,142.805463 88.0810611,142.020492 C88.0810611,141.235522 88.7183285,140.599558 89.5049074,140.599558 L107.07902,140.599558 C107.865598,140.599558 108.502866,141.235522 108.502866,142.020492 C108.502866,142.805463 107.865598,143.441427 107.07902,143.441427 Z M107.07902,137.425881 L89.5049074,137.425881 C88.7183285,137.425881 88.0810611,136.789917 88.0810611,136.004946 C88.0810611,135.219976 88.7183285,134.584012 89.5049074,134.584012 L107.07902,134.584012 C107.865598,134.584012 108.502866,135.219976 108.502866,136.004946 C108.502866,136.789917 107.865598,137.425881 107.07902,137.425881 Z M134.7863,107.093152 L115.971517,107.093152 C115.184938,107.093152 114.547671,106.457188 114.547671,105.672217 C114.547671,104.887247 115.184938,104.251283 115.971517,104.251283 L134.7863,104.251283 C135.572879,104.251283 136.210146,104.887247 136.210146,105.672217 C136.210146,106.457188 135.572879,107.093152 134.7863,107.093152 Z M134.7863,101.07607 L115.971517,101.07607 C115.184938,101.07607 114.547671,100.440106 114.547671,99.6551353 C114.547671,98.870165 115.184938,98.2342007 115.971517,98.2342007 L134.7863,98.2342007 C135.572879,98.2342007 136.210146,98.870165 136.210146,99.6551353 C136.210146,100.440106 135.572879,101.07607 134.7863,101.07607 Z M134.7863,94.5474515 L115.971517,94.5474515 C115.184938,94.5474515 114.547671,93.9114873 114.547671,93.1265169 C114.547671,92.3415466 115.184938,91.7055824 115.971517,91.7055824 L134.7863,91.7055824 C135.572879,91.7055824 136.210146,92.3415466 136.210146,93.1265169 C136.210146,93.9114873 135.572879,94.5474515 134.7863,94.5474515 Z M134.7863,88.5303696 L115.971517,88.5303696 C115.184938,88.5303696 114.547671,87.8944054 114.547671,87.109435 C114.547671,86.3244647 115.184938,85.6885004 115.971517,85.6885004 L134.7863,85.6885004 C135.572879,85.6885004 136.210146,86.3244647 136.210146,87.109435 C136.210146,87.8944054 135.572879,88.5303696 134.7863,88.5303696 Z M134.787069,155.979446 L116.223192,155.979446 C115.373502,155.979446 114.683898,155.291253 114.683898,154.443301 L114.683898,136.126302 C114.683898,135.27835 115.373502,134.590156 116.223192,134.590156 L134.788609,134.590156 C135.638299,134.590156 136.327902,135.27835 136.327902,136.126302 L136.327902,154.443301 C136.326363,155.292789 135.636759,155.979446 134.787069,155.979446 Z M117.762485,152.907155 L133.249315,152.907155 L133.249315,137.662447 L117.762485,137.662447 L117.762485,152.907155 Z M108.172687,106.962579 L89.0346533,106.962579 C88.1849634,106.962579 87.49536,106.274386 87.49536,105.426434 L87.49536,87.109435 C87.49536,86.2614827 88.1849634,85.5732895 89.0346533,85.5732895 L108.172687,85.5732895 C109.023917,85.5732895 109.711981,86.2614827 109.711981,87.109435 L109.711981,105.426434 C109.711981,106.275922 109.025456,106.962579 108.172687,106.962579 Z M90.5739466,103.890288 L106.634933,103.890288 L106.634933,88.6455805 L90.5739466,88.6455805 L90.5739466,103.890288 Z" id="noticias"></path>
            </g>
        </g>
    </g>
</svg>