<?xml version="1.0" encoding="utf-8"?>
<!-- Generator: Adobe Illustrator 18.0.0, SVG Export Plug-In . SVG Version: 6.00 Build 0)  -->
<svg version="1.2" baseProfile="tiny" id="Layer_1" xmlns="http://www.w3.org/2000/svg" xmlns:xlink="http://www.w3.org/1999/xlink"
	 x="0px" y="0px" viewBox="0 0 500 150" xml:space="preserve">
<g>
	<path fill="#FFFFFF" d="M29.6,35.6c0.3,0,0.5,0.1,0.7,0.3l1.9,2.1c-1.5,1.7-3.2,3-5.3,4c-2.1,0.9-4.6,1.4-7.6,1.4
		c-2.6,0-4.9-0.4-7-1.3c-2.1-0.9-3.9-2.1-5.4-3.8s-2.6-3.5-3.4-5.8c-0.8-2.3-1.2-4.7-1.2-7.4c0-2.7,0.4-5.2,1.3-7.4s2.1-4.2,3.7-5.8
		c1.6-1.6,3.5-2.9,5.7-3.8c2.2-0.9,4.6-1.3,7.3-1.3c2.6,0,4.9,0.4,6.8,1.2c1.9,0.8,3.6,1.9,5.1,3.3l-1.6,2.2
		c-0.1,0.2-0.3,0.3-0.4,0.4c-0.1,0.1-0.4,0.2-0.6,0.2c-0.2,0-0.4-0.1-0.7-0.2s-0.5-0.4-0.9-0.6c-0.3-0.2-0.7-0.5-1.2-0.8
		c-0.4-0.3-1-0.5-1.6-0.8c-0.6-0.2-1.3-0.4-2.2-0.6C22.2,11,21.3,11,20.2,11c-1.9,0-3.7,0.3-5.3,1c-1.6,0.7-3,1.6-4.1,2.8
		c-1.1,1.2-2,2.7-2.7,4.5c-0.6,1.8-1,3.7-1,5.9c0,2.2,0.3,4.2,1,6c0.6,1.8,1.5,3.2,2.6,4.4c1.1,1.2,2.4,2.1,3.9,2.8
		c1.5,0.6,3.1,1,4.9,1c1.1,0,2-0.1,2.9-0.2s1.6-0.3,2.4-0.6c0.7-0.3,1.4-0.6,2-1c0.6-0.4,1.3-0.9,1.9-1.5
		C29.1,35.7,29.3,35.6,29.6,35.6z"/>
	<path fill="#FFFFFF" d="M71.9,25.1c0,2.7-0.4,5.1-1.3,7.4c-0.9,2.2-2.1,4.2-3.6,5.8c-1.5,1.6-3.4,2.9-5.6,3.8
		c-2.2,0.9-4.6,1.3-7.2,1.3c-2.6,0-5-0.4-7.2-1.3c-2.2-0.9-4-2.1-5.6-3.8c-1.5-1.6-2.8-3.5-3.6-5.8c-0.9-2.2-1.3-4.7-1.3-7.4
		c0-2.7,0.4-5.1,1.3-7.4c0.8-2.2,2-4.2,3.6-5.8C43,10.3,44.8,9,47,8.1c2.2-0.9,4.6-1.4,7.2-1.4c2.6,0,5,0.5,7.2,1.4
		c2.2,0.9,4,2.2,5.6,3.8s2.8,3.6,3.6,5.8C71.5,19.9,71.9,22.4,71.9,25.1z M66.9,25.1c0-2.2-0.3-4.2-0.9-5.9s-1.5-3.2-2.5-4.4
		c-1.1-1.2-2.4-2.1-4-2.8c-1.6-0.7-3.3-1-5.3-1c-1.9,0-3.7,0.3-5.2,1c-1.6,0.6-2.9,1.6-4,2.8c-1.1,1.2-2,2.7-2.6,4.4
		s-0.9,3.7-0.9,5.9c0,2.2,0.3,4.2,0.9,5.9s1.5,3.2,2.6,4.4c1.1,1.2,2.4,2.1,4,2.8c1.6,0.6,3.3,1,5.2,1c1.9,0,3.7-0.3,5.3-1
		c1.6-0.6,2.9-1.6,4-2.8c1.1-1.2,1.9-2.7,2.5-4.4S66.9,27.3,66.9,25.1z"/>
	<path fill="#FFFFFF" d="M83.3,38.9h15.5V43H78.5V7.2h4.9V38.9z"/>
	<path fill="#FFFFFF" d="M126.3,7.2v4h-17.2V23H123v3.8h-13.9V39h17.2v4h-22.1V7.2H126.3z"/>
	<path fill="#FFFFFF" d="M149.2,39.5c1,0,1.9,0,2.7-0.1c0.8-0.1,1.6-0.2,2.3-0.4c0.7-0.2,1.4-0.4,2-0.7s1.3-0.6,1.9-0.9v-7.9h-5.6
		c-0.3,0-0.6-0.1-0.8-0.3c-0.2-0.2-0.3-0.4-0.3-0.7v-2.8h11v13.8c-0.9,0.6-1.8,1.2-2.8,1.7s-2,0.9-3.1,1.2c-1.1,0.3-2.3,0.6-3.6,0.7
		c-1.3,0.2-2.6,0.2-4.1,0.2c-2.6,0-5-0.4-7.1-1.3c-2.2-0.9-4-2.1-5.6-3.8c-1.6-1.6-2.8-3.5-3.7-5.8s-1.3-4.7-1.3-7.4
		c0-2.7,0.4-5.2,1.3-7.5c0.9-2.3,2.1-4.2,3.7-5.8c1.6-1.6,3.5-2.9,5.8-3.7s4.8-1.3,7.6-1.3c1.4,0,2.7,0.1,3.9,0.3
		c1.2,0.2,2.3,0.5,3.4,0.9c1,0.4,2,0.9,2.9,1.4c0.9,0.6,1.7,1.2,2.5,1.9l-1.4,2.2c-0.3,0.5-0.6,0.7-1.1,0.7c-0.3,0-0.6-0.1-0.9-0.3
		c-0.4-0.2-0.9-0.5-1.4-0.9c-0.5-0.3-1.1-0.7-1.9-1c-0.7-0.3-1.6-0.6-2.6-0.8c-1-0.2-2.2-0.3-3.6-0.3c-2,0-3.8,0.3-5.5,1
		c-1.6,0.7-3,1.6-4.2,2.8s-2,2.7-2.6,4.4c-0.6,1.7-0.9,3.7-0.9,5.9c0,2.3,0.3,4.3,1,6.1c0.6,1.8,1.5,3.3,2.7,4.5
		c1.2,1.2,2.5,2.2,4.1,2.8S147.3,39.5,149.2,39.5z"/>
	<path fill="#FFFFFF" d="M175.7,43h-4.9V7.2h4.9V43z"/>
	<path fill="#FFFFFF" d="M218.6,25.1c0,2.7-0.4,5.1-1.3,7.4c-0.9,2.2-2.1,4.2-3.6,5.8c-1.5,1.6-3.4,2.9-5.6,3.8
		c-2.2,0.9-4.6,1.3-7.2,1.3c-2.6,0-5-0.4-7.2-1.3c-2.2-0.9-4-2.1-5.6-3.8c-1.5-1.6-2.8-3.5-3.6-5.8c-0.9-2.2-1.3-4.7-1.3-7.4
		c0-2.7,0.4-5.1,1.3-7.4c0.8-2.2,2-4.2,3.6-5.8c1.6-1.6,3.4-2.9,5.6-3.8c2.2-0.9,4.6-1.4,7.2-1.4c2.6,0,5,0.5,7.2,1.4
		c2.2,0.9,4,2.2,5.6,3.8s2.8,3.6,3.6,5.8C218.1,19.9,218.6,22.4,218.6,25.1z M213.6,25.1c0-2.2-0.3-4.2-0.9-5.9s-1.5-3.2-2.5-4.4
		c-1.1-1.2-2.4-2.1-4-2.8c-1.6-0.7-3.3-1-5.3-1c-1.9,0-3.7,0.3-5.2,1c-1.6,0.6-2.9,1.6-4,2.8c-1.1,1.2-2,2.7-2.6,4.4
		s-0.9,3.7-0.9,5.9c0,2.2,0.3,4.2,0.9,5.9s1.5,3.2,2.6,4.4c1.1,1.2,2.4,2.1,4,2.8c1.6,0.6,3.3,1,5.2,1c1.9,0,3.7-0.3,5.3-1
		c1.6-0.6,2.9-1.6,4-2.8c1.1-1.2,1.9-2.7,2.5-4.4S213.6,27.3,213.6,25.1z"/>
	<path fill="#FFFFFF" d="M282.1,25.1c0,2.7-0.4,5.1-1.3,7.3c-0.8,2.2-2,4.1-3.6,5.7s-3.4,2.8-5.6,3.6c-2.2,0.9-4.6,1.3-7.2,1.3
		h-13.4V7.2h13.4c2.6,0,5,0.4,7.2,1.3c2.2,0.9,4,2.1,5.6,3.6c1.6,1.6,2.8,3.5,3.6,5.7C281.7,20,282.1,22.4,282.1,25.1z M277.1,25.1
		c0-2.2-0.3-4.2-0.9-5.9s-1.4-3.2-2.6-4.4c-1.1-1.2-2.4-2.1-4-2.8c-1.6-0.6-3.3-0.9-5.2-0.9h-8.5v28h8.5c1.9,0,3.7-0.3,5.2-1
		c1.6-0.6,2.9-1.5,4-2.7c1.1-1.2,2-2.7,2.6-4.4S277.1,27.3,277.1,25.1z"/>
	<path fill="#FFFFFF" d="M322,25.1c0,2.7-0.4,5.1-1.3,7.4c-0.8,2.2-2,4.2-3.6,5.8c-1.5,1.6-3.4,2.9-5.6,3.8
		c-2.2,0.9-4.6,1.3-7.2,1.3c-2.6,0-5-0.4-7.2-1.3c-2.2-0.9-4-2.1-5.6-3.8c-1.5-1.6-2.8-3.5-3.6-5.8c-0.9-2.2-1.3-4.7-1.3-7.4
		c0-2.7,0.4-5.1,1.3-7.4c0.8-2.2,2-4.2,3.6-5.8s3.4-2.9,5.6-3.8c2.2-0.9,4.6-1.4,7.2-1.4c2.6,0,5,0.5,7.2,1.4c2.2,0.9,4,2.2,5.6,3.8
		s2.8,3.6,3.6,5.8C321.6,19.9,322,22.4,322,25.1z M317,25.1c0-2.2-0.3-4.2-0.9-5.9s-1.5-3.2-2.5-4.4c-1.1-1.2-2.4-2.1-4-2.8
		c-1.6-0.7-3.3-1-5.3-1c-1.9,0-3.7,0.3-5.2,1c-1.6,0.6-2.9,1.6-4,2.8c-1.1,1.2-2,2.7-2.6,4.4c-0.6,1.8-0.9,3.7-0.9,5.9
		c0,2.2,0.3,4.2,0.9,5.9c0.6,1.7,1.5,3.2,2.6,4.4c1.1,1.2,2.4,2.1,4,2.8c1.6,0.6,3.3,1,5.2,1c1.9,0,3.7-0.3,5.3-1
		c1.6-0.6,2.9-1.6,4-2.8c1.1-1.2,2-2.7,2.5-4.4S317,27.3,317,25.1z"/>
	<path fill="#FFFFFF" d="M346.8,31.3c0.2,0.4,0.3,0.9,0.5,1.3c0.2-0.5,0.3-0.9,0.5-1.3s0.4-0.9,0.6-1.3l12.1-22
		c0.2-0.4,0.4-0.6,0.7-0.7c0.2-0.1,0.6-0.1,1-0.1h3.6V43h-4.3V16.7c0-0.3,0-0.7,0-1.1c0-0.4,0-0.8,0.1-1.2l-12.3,22.4
		c-0.4,0.8-1,1.1-1.8,1.1H347c-0.8,0-1.3-0.4-1.8-1.1l-12.5-22.5c0,0.4,0.1,0.9,0.1,1.3c0,0.4,0,0.8,0,1.1V43h-4.3V7.2h3.6
		c0.4,0,0.8,0,1,0.1c0.2,0.1,0.5,0.3,0.7,0.7l12.4,22C346.5,30.4,346.7,30.9,346.8,31.3z"/>
	<path fill="#FFFFFF" d="M380.4,43h-4.8V7.2h4.8V43z"/>
	<path fill="#FFFFFF" d="M393.4,7.3c0.2,0.1,0.4,0.3,0.7,0.7l20.8,27c-0.1-0.4-0.1-0.9-0.1-1.3c0-0.4,0-0.8,0-1.2V7.2h4.3V43h-2.5
		c-0.4,0-0.7-0.1-1-0.2c-0.3-0.1-0.5-0.4-0.8-0.7l-20.7-27c0,0.4,0.1,0.8,0.1,1.2s0,0.8,0,1.1V43H390V7.2h2.5
		C392.9,7.2,393.2,7.2,393.4,7.3z"/>
	<path fill="#FFFFFF" d="M443.7,39.5c1,0,1.9,0,2.7-0.1c0.8-0.1,1.6-0.2,2.3-0.4c0.7-0.2,1.4-0.4,2-0.7s1.3-0.6,1.9-0.9v-7.9h-5.5
		c-0.3,0-0.6-0.1-0.8-0.3c-0.2-0.2-0.3-0.4-0.3-0.7v-2.8h11v13.8c-0.9,0.6-1.8,1.2-2.8,1.7c-1,0.5-2,0.9-3.1,1.2s-2.3,0.6-3.6,0.7
		c-1.3,0.2-2.6,0.2-4.1,0.2c-2.6,0-5-0.4-7.1-1.3c-2.2-0.9-4-2.1-5.6-3.8s-2.8-3.5-3.7-5.8s-1.3-4.7-1.3-7.4c0-2.7,0.4-5.2,1.3-7.5
		s2.1-4.2,3.7-5.8c1.6-1.6,3.5-2.9,5.8-3.7s4.8-1.3,7.6-1.3c1.4,0,2.7,0.1,4,0.3c1.2,0.2,2.3,0.5,3.4,0.9c1,0.4,2,0.9,2.9,1.4
		c0.9,0.6,1.7,1.2,2.5,1.9l-1.4,2.2c-0.3,0.5-0.7,0.7-1.1,0.7c-0.3,0-0.6-0.1-0.9-0.3c-0.4-0.2-0.9-0.5-1.4-0.9
		c-0.5-0.3-1.1-0.7-1.9-1c-0.7-0.3-1.6-0.6-2.6-0.8c-1-0.2-2.2-0.3-3.6-0.3c-2,0-3.8,0.3-5.5,1c-1.6,0.7-3,1.6-4.2,2.8
		c-1.2,1.2-2,2.7-2.7,4.4c-0.6,1.7-0.9,3.7-0.9,5.9c0,2.3,0.3,4.3,1,6.1s1.5,3.3,2.7,4.5c1.2,1.2,2.5,2.2,4.2,2.8
		C440,39.1,441.8,39.5,443.7,39.5z"/>
	<path fill="#FFFFFF" d="M497.7,25.1c0,2.7-0.4,5.1-1.3,7.4c-0.8,2.2-2,4.2-3.6,5.8c-1.5,1.6-3.4,2.9-5.6,3.8
		c-2.2,0.9-4.6,1.3-7.2,1.3c-2.6,0-5-0.4-7.2-1.3c-2.2-0.9-4-2.1-5.6-3.8c-1.5-1.6-2.8-3.5-3.6-5.8c-0.9-2.2-1.3-4.7-1.3-7.4
		c0-2.7,0.4-5.1,1.3-7.4c0.8-2.2,2-4.2,3.6-5.8s3.4-2.9,5.6-3.8c2.2-0.9,4.6-1.4,7.2-1.4c2.6,0,5,0.5,7.2,1.4c2.2,0.9,4,2.2,5.6,3.8
		s2.8,3.6,3.6,5.8C497.3,19.9,497.7,22.4,497.7,25.1z M492.8,25.1c0-2.2-0.3-4.2-0.9-5.9s-1.5-3.2-2.5-4.4c-1.1-1.2-2.4-2.1-4-2.8
		c-1.6-0.7-3.3-1-5.3-1c-1.9,0-3.7,0.3-5.2,1c-1.6,0.6-2.9,1.6-4,2.8c-1.1,1.2-2,2.7-2.6,4.4c-0.6,1.8-0.9,3.7-0.9,5.9
		c0,2.2,0.3,4.2,0.9,5.9c0.6,1.7,1.5,3.2,2.6,4.4c1.1,1.2,2.4,2.1,4,2.8c1.6,0.6,3.3,1,5.2,1c1.9,0,3.7-0.3,5.3-1
		c1.6-0.6,2.9-1.6,4-2.8c1.1-1.2,2-2.7,2.5-4.4S492.8,27.3,492.8,25.1z"/>
	<path fill="#FFFFFF" d="M22.7,72.8c-0.2,0.3-0.3,0.4-0.5,0.6c-0.2,0.1-0.4,0.2-0.6,0.2c-0.3,0-0.6-0.1-1-0.4
		c-0.4-0.3-0.9-0.6-1.4-0.9c-0.6-0.3-1.3-0.7-2.1-0.9c-0.8-0.3-1.8-0.4-2.9-0.4c-1.1,0-2,0.1-2.9,0.4c-0.8,0.3-1.5,0.7-2.1,1.2
		c-0.6,0.5-1,1.1-1.3,1.8s-0.4,1.4-0.4,2.2c0,1,0.2,1.8,0.7,2.5c0.5,0.7,1.1,1.2,2,1.7c0.8,0.5,1.7,0.9,2.8,1.2s2.1,0.7,3.1,1.1
		c1.1,0.4,2.1,0.8,3.1,1.2c1,0.5,1.9,1,2.8,1.7c0.8,0.7,1.5,1.6,2,2.6c0.5,1,0.7,2.3,0.7,3.8c0,1.6-0.3,3-0.8,4.4
		c-0.5,1.4-1.3,2.6-2.3,3.6s-2.3,1.8-3.8,2.4c-1.5,0.6-3.2,0.9-5.1,0.9c-2.3,0-4.4-0.4-6.3-1.3c-1.9-0.8-3.5-2-4.9-3.4l1.4-2.3
		C3,96.2,3.1,96.1,3.3,96c0.2-0.1,0.4-0.2,0.6-0.2c0.4,0,0.8,0.2,1.2,0.6c0.5,0.4,1,0.8,1.7,1.2c0.7,0.5,1.5,0.9,2.5,1.2
		c1,0.4,2.1,0.6,3.5,0.6c1.1,0,2.2-0.2,3.1-0.5s1.7-0.8,2.3-1.3s1.1-1.3,1.4-2.1c0.3-0.8,0.5-1.7,0.5-2.7c0-1.1-0.2-2-0.7-2.7
		c-0.5-0.7-1.1-1.3-1.9-1.7c-0.8-0.5-1.7-0.9-2.7-1.2c-1-0.3-2.1-0.7-3.1-1c-1.1-0.3-2.1-0.7-3.1-1.2c-1-0.4-1.9-1-2.7-1.8
		c-0.8-0.7-1.4-1.6-1.9-2.7c-0.5-1.1-0.7-2.4-0.7-4c0-1.3,0.2-2.5,0.7-3.7s1.2-2.2,2.1-3.2c0.9-0.9,2.1-1.6,3.5-2.2
		c1.4-0.6,3-0.8,4.7-0.8c2,0,3.8,0.3,5.5,1c1.7,0.6,3.1,1.5,4.3,2.8L22.7,72.8z"/>
	<path fill="#FFFFFF" d="M75.3,103h-3.8c-0.4,0-0.8-0.1-1.1-0.3c-0.3-0.2-0.5-0.5-0.6-0.8l-3.3-8.7H50.5l-3.4,8.7
		c-0.1,0.3-0.3,0.6-0.6,0.8s-0.6,0.3-1,0.3h-3.8l14.3-35.8H61L75.3,103z M51.9,89.7h13.4l-5.6-14.6c-0.4-0.9-0.7-2-1.1-3.4
		c-0.2,0.7-0.4,1.3-0.5,1.9c-0.2,0.6-0.3,1.1-0.5,1.5L51.9,89.7z"/>
	<path fill="#FFFFFF" d="M98.3,67.3c0.2,0.1,0.4,0.3,0.7,0.7l20.8,27c0-0.4-0.1-0.9-0.1-1.3c0-0.4,0-0.8,0-1.2V67.2h4.3V103h-2.4
		c-0.4,0-0.7-0.1-1-0.2c-0.3-0.1-0.5-0.4-0.8-0.7L99,75.1c0,0.4,0.1,0.8,0.1,1.2c0,0.4,0,0.8,0,1.1V103h-4.3V67.2h2.5
		C97.8,67.2,98.1,67.2,98.3,67.3z"/>
	<path fill="#FFFFFF" d="M172,67.2v4.1h-11.6V103h-4.8V71.2H144v-4.1H172z"/>
	<path fill="#FFFFFF" d="M218.3,103h-3.8c-0.4,0-0.8-0.1-1.1-0.3c-0.3-0.2-0.5-0.5-0.6-0.8l-3.3-8.7h-16.1l-3.4,8.7
		c-0.1,0.3-0.3,0.6-0.6,0.8s-0.6,0.3-1,0.3h-3.8l14.3-35.8h4.9L218.3,103z M194.8,89.7h13.4l-5.6-14.6c-0.4-0.9-0.7-2-1.1-3.4
		c-0.2,0.7-0.4,1.3-0.5,1.9c-0.2,0.6-0.3,1.1-0.5,1.5L194.8,89.7z"/>
	<path fill="#FFFFFF" d="M301,91.3c0.2,0.4,0.3,0.9,0.5,1.3c0.2-0.5,0.3-0.9,0.5-1.3s0.4-0.9,0.6-1.3l12.1-22
		c0.2-0.4,0.4-0.6,0.7-0.7c0.2-0.1,0.6-0.1,1-0.1h3.6V103h-4.3V76.7c0-0.3,0-0.7,0-1.1c0-0.4,0-0.8,0.1-1.2l-12.3,22.4
		c-0.4,0.8-1,1.1-1.8,1.1h-0.7c-0.8,0-1.3-0.4-1.8-1.1l-12.5-22.5c0,0.4,0.1,0.9,0.1,1.3c0,0.4,0,0.8,0,1.1V103h-4.3V67.2h3.6
		c0.4,0,0.8,0,1,0.1c0.2,0.1,0.5,0.3,0.7,0.7l12.4,22C300.7,90.4,300.9,90.9,301,91.3z"/>
	<path fill="#FFFFFF" d="M373.3,103h-3.8c-0.4,0-0.8-0.1-1-0.3c-0.3-0.2-0.5-0.5-0.6-0.8l-3.3-8.7h-16.1l-3.3,8.7
		c-0.1,0.3-0.3,0.6-0.6,0.8s-0.6,0.3-1,0.3h-3.8L354,67.2h4.9L373.3,103z M349.8,89.7h13.4l-5.6-14.6c-0.4-0.9-0.7-2-1.1-3.4
		c-0.2,0.7-0.4,1.3-0.5,1.9c-0.2,0.6-0.3,1.1-0.5,1.5L349.8,89.7z"/>
	<path fill="#FFFFFF" d="M398.1,88v15h-4.8V67.2h10.1c2.3,0,4.2,0.2,5.9,0.7c1.7,0.5,3,1.1,4.1,2s1.9,1.9,2.4,3.1
		c0.5,1.2,0.8,2.6,0.8,4.1c0,1.3-0.2,2.4-0.6,3.5c-0.4,1.1-1,2.1-1.7,3c-0.8,0.9-1.7,1.6-2.8,2.2c-1.1,0.6-2.3,1.1-3.7,1.4
		c0.6,0.4,1.1,0.9,1.6,1.5l10.5,14.2h-4.3c-0.9,0-1.5-0.3-2-1l-9.3-12.8c-0.3-0.4-0.6-0.7-0.9-0.9c-0.3-0.2-0.8-0.3-1.5-0.3H398.1z
		 M398.1,84.5h5.1c1.4,0,2.7-0.2,3.7-0.5s2-0.8,2.7-1.5s1.3-1.4,1.6-2.2c0.4-0.9,0.5-1.8,0.5-2.9c0-2.1-0.7-3.7-2.1-4.8
		c-1.4-1.1-3.5-1.6-6.3-1.6h-5.3V84.5z"/>
	<path fill="#FFFFFF" d="M451.9,58.4l-7.3,5.4c-0.3,0.2-0.5,0.3-0.8,0.4c-0.2,0.1-0.5,0.1-0.9,0.1h-3.5l5.3-5.1
		c0.2-0.2,0.3-0.3,0.5-0.4c0.1-0.1,0.3-0.2,0.4-0.3c0.1-0.1,0.3-0.1,0.5-0.1c0.2,0,0.4,0,0.7,0H451.9z M445.8,103h-4.8V67.2h4.8V103
		z"/>
	<path fill="#FFFFFF" d="M499.8,103h-3.8c-0.4,0-0.8-0.1-1-0.3c-0.3-0.2-0.5-0.5-0.6-0.8l-3.3-8.7H475l-3.3,8.7
		c-0.1,0.3-0.3,0.6-0.6,0.8s-0.6,0.3-1,0.3h-3.8l14.3-35.8h4.9L499.8,103z M476.4,89.7h13.4l-5.6-14.6c-0.4-0.9-0.7-2-1.1-3.4
		c-0.2,0.7-0.4,1.3-0.5,1.9c-0.2,0.6-0.3,1.1-0.5,1.5L476.4,89.7z"/>
	<path fill="#FFFFFF" d="M123.3,119.4h2.6c0.3,0,0.5,0.1,0.7,0.2s0.3,0.3,0.4,0.6l6.9,17.2c0.2,0.4,0.3,0.8,0.4,1.3s0.3,0.9,0.4,1.4
		c0.1-0.5,0.2-1,0.3-1.4c0.1-0.5,0.3-0.9,0.4-1.3l6.9-17.2c0.1-0.2,0.2-0.4,0.4-0.5c0.2-0.2,0.4-0.2,0.7-0.2h2.7l-9.9,24.4h-3
		L123.3,119.4z"/>
	<path fill="#FFFFFF" d="M153.2,143.8h-3.3v-24.4h3.3V143.8z"/>
	<path fill="#FFFFFF" d="M176.9,138.8c0.2,0,0.3,0.1,0.5,0.2l1.3,1.4c-1,1.2-2.2,2.1-3.6,2.7c-1.4,0.6-3.1,1-5.1,1
		c-1.8,0-3.3-0.3-4.8-0.9c-1.4-0.6-2.6-1.5-3.7-2.5s-1.8-2.4-2.3-3.9c-0.6-1.5-0.8-3.2-0.8-5s0.3-3.5,0.9-5c0.6-1.5,1.4-2.8,2.5-3.9
		c1.1-1.1,2.4-2,3.9-2.6c1.5-0.6,3.2-0.9,5-0.9c1.8,0,3.3,0.3,4.6,0.8c1.3,0.6,2.5,1.3,3.5,2.3l-1.1,1.5c-0.1,0.1-0.2,0.2-0.3,0.3
		s-0.2,0.1-0.4,0.1c-0.1,0-0.3-0.1-0.5-0.2c-0.2-0.1-0.4-0.2-0.6-0.4c-0.2-0.2-0.5-0.3-0.8-0.5c-0.3-0.2-0.7-0.4-1.1-0.5
		c-0.4-0.2-0.9-0.3-1.5-0.4s-1.2-0.2-1.9-0.2c-1.3,0-2.5,0.2-3.6,0.7c-1.1,0.4-2,1.1-2.8,1.9c-0.8,0.8-1.4,1.8-1.8,3
		c-0.4,1.2-0.7,2.5-0.7,4c0,1.5,0.2,2.9,0.7,4.1c0.4,1.2,1,2.2,1.8,3c0.8,0.8,1.6,1.4,2.7,1.9c1,0.4,2.1,0.6,3.3,0.6
		c0.7,0,1.4,0,2-0.1c0.6-0.1,1.1-0.2,1.6-0.4c0.5-0.2,1-0.4,1.4-0.7c0.4-0.3,0.9-0.6,1.3-1C176.5,138.8,176.7,138.8,176.9,138.8z"/>
	<path fill="#FFFFFF" d="M192.4,141.2c1,0,1.9-0.2,2.7-0.5s1.5-0.8,2-1.4c0.5-0.6,1-1.3,1.3-2.2c0.3-0.8,0.4-1.8,0.4-2.8v-14.8h3.3
		v14.8c0,1.4-0.2,2.7-0.7,3.9s-1.1,2.2-1.9,3.1c-0.8,0.9-1.9,1.6-3.1,2.1c-1.2,0.5-2.6,0.7-4,0.7c-1.5,0-2.8-0.2-4-0.7
		c-1.2-0.5-2.2-1.2-3.1-2.1c-0.8-0.9-1.5-1.9-1.9-3.1c-0.4-1.2-0.7-2.5-0.7-3.9v-14.8h3.3v14.8c0,1,0.1,2,0.4,2.8
		c0.3,0.8,0.7,1.6,1.3,2.2c0.5,0.6,1.2,1.1,2,1.4C190.5,141,191.4,141.2,192.4,141.2z"/>
	<path fill="#FFFFFF" d="M210.1,119.5c0.1,0.1,0.3,0.2,0.5,0.5l14.1,18.4c0-0.3-0.1-0.6-0.1-0.9c0-0.3,0-0.5,0-0.8v-17.3h2.9v24.4
		h-1.7c-0.3,0-0.5,0-0.7-0.1c-0.2-0.1-0.3-0.2-0.5-0.5l-14.1-18.3c0,0.3,0,0.6,0.1,0.8c0,0.3,0,0.5,0,0.7v17.4h-2.9v-24.4h1.7
		C209.8,119.4,210,119.5,210.1,119.5z M220.1,115.5c0.4,0,0.7-0.1,0.9-0.3c0.2-0.2,0.3-0.6,0.3-1h1.7c0,0.5-0.1,0.9-0.2,1.3
		c-0.1,0.4-0.3,0.8-0.5,1.1c-0.2,0.3-0.5,0.5-0.9,0.7s-0.8,0.2-1.2,0.2c-0.4,0-0.8-0.1-1.1-0.2c-0.4-0.1-0.7-0.3-1-0.5
		c-0.3-0.2-0.6-0.3-0.9-0.5c-0.3-0.1-0.6-0.2-0.9-0.2c-0.4,0-0.7,0.1-0.9,0.4c-0.2,0.2-0.3,0.6-0.3,1h-1.7c0-0.5,0.1-0.9,0.2-1.4
		s0.3-0.8,0.6-1.1s0.5-0.5,0.9-0.7c0.4-0.2,0.8-0.3,1.2-0.3c0.4,0,0.8,0.1,1.1,0.2c0.4,0.1,0.7,0.3,1,0.5c0.3,0.2,0.6,0.3,0.9,0.5
		C219.6,115.4,219.9,115.5,220.1,115.5z"/>
	<path fill="#FFFFFF" d="M253.5,143.8H251c-0.3,0-0.5-0.1-0.7-0.2s-0.3-0.3-0.4-0.6l-2.3-5.9h-10.9l-2.3,5.9
		c-0.1,0.2-0.2,0.4-0.4,0.5c-0.2,0.2-0.4,0.2-0.7,0.2h-2.6l9.7-24.4h3.3L253.5,143.8z M237.6,134.7h9.1l-3.8-9.9
		c-0.2-0.6-0.5-1.4-0.7-2.3c-0.1,0.5-0.2,0.9-0.4,1.3c-0.1,0.4-0.2,0.7-0.3,1L237.6,134.7z"/>
	<path fill="#FFFFFF" d="M261.9,132.3h8.4v2.6h-8.4V132.3z"/>
	<path fill="#FFFFFF" d="M296.5,119.4v2.7h-11.7v8.1h9.5v2.6h-9.5v8.3h11.7v2.7h-15v-24.4H296.5z"/>
	<path fill="#FFFFFF" d="M304.6,141h10.5v2.8h-13.8v-24.4h3.3V141z"/>
	<path fill="#FFFFFF" d="M340,131.6c0,1.1-0.1,2.2-0.3,3.3c-0.2,1-0.6,2-1,2.9c-0.4,0.9-1,1.7-1.6,2.4c-0.6,0.7-1.3,1.4-2.1,1.9
		l6.3,6.7h-2.7c-0.4,0-0.8-0.1-1.1-0.2s-0.6-0.3-0.9-0.6l-4.3-4.7c-0.6,0.2-1.3,0.4-2,0.5c-0.7,0.1-1.4,0.2-2.2,0.2
		c-1.8,0-3.4-0.3-4.9-0.9s-2.7-1.5-3.8-2.6c-1.1-1.1-1.9-2.4-2.4-3.9s-0.9-3.2-0.9-5c0-1.8,0.3-3.5,0.9-5s1.4-2.8,2.4-3.9
		c1.1-1.1,2.3-2,3.8-2.6s3.1-0.9,4.9-0.9c1.8,0,3.4,0.3,4.9,0.9c1.5,0.6,2.7,1.5,3.8,2.6c1.1,1.1,1.9,2.4,2.4,3.9
		S340,129.8,340,131.6z M336.6,131.6c0-1.5-0.2-2.8-0.6-4c-0.4-1.2-1-2.2-1.7-3c-0.7-0.8-1.7-1.5-2.7-1.9c-1.1-0.4-2.3-0.7-3.6-0.7
		c-1.3,0-2.5,0.2-3.6,0.7c-1.1,0.4-2,1.1-2.7,1.9c-0.8,0.8-1.3,1.8-1.7,3c-0.4,1.2-0.6,2.5-0.6,4s0.2,2.8,0.6,4c0.4,1.2,1,2.2,1.7,3
		c0.8,0.8,1.7,1.5,2.7,1.9s2.3,0.7,3.6,0.7c1.3,0,2.5-0.2,3.6-0.7s2-1.1,2.7-1.9c0.7-0.8,1.3-1.8,1.7-3
		C336.4,134.5,336.6,133.1,336.6,131.6z"/>
	<path fill="#FFFFFF" d="M354,141.2c1,0,1.9-0.2,2.7-0.5s1.5-0.8,2-1.4s1-1.3,1.3-2.2c0.3-0.8,0.4-1.8,0.4-2.8v-14.8h3.3v14.8
		c0,1.4-0.2,2.7-0.7,3.9c-0.4,1.2-1.1,2.2-1.9,3.1c-0.8,0.9-1.9,1.6-3.1,2.1c-1.2,0.5-2.5,0.7-4,0.7s-2.8-0.2-4-0.7
		c-1.2-0.5-2.2-1.2-3.1-2.1c-0.8-0.9-1.5-1.9-1.9-3.1c-0.4-1.2-0.7-2.5-0.7-3.9v-14.8h3.3v14.8c0,1,0.1,2,0.4,2.8
		c0.3,0.8,0.7,1.6,1.3,2.2c0.5,0.6,1.2,1.1,2,1.4C352.1,141,353,141.2,354,141.2z"/>
	<path fill="#FFFFFF" d="M373.3,143.8H370v-24.4h3.3V143.8z"/>
</g>
</svg>
